<svg xmlns="http://www.w3.org/2000/svg" viewBox="0 0 200 200" role="img" aria-label="Default profile avatar">
  <defs>
    <linearGradient id="gp" x1="0%" y1="0%" x2="100%" y2="100%">
      <stop offset="0%" stop-color="#6366f1"/>
      <stop offset="100%" stop-color="#8b5cf6"/>
    </linearGradient>
  </defs>
  <rect width="200" height="200" rx="32" fill="url(#gp)"/>
  <circle cx="100" cy="82" r="42" fill="#fff" fill-opacity="0.92"/>
  <circle cx="100" cy="70" r="26" fill="#6366f1" fill-opacity="0.12"/>
  <circle cx="100" cy="70" r="22" fill="#f8fafc"/>
  <path d="M60 142c0-22 18-38 40-38h0c22 0 40 16 40 38v10c0 6-4 10-10 10H70c-6 0-10-4-10-10z" fill="#f8fafc" fill-opacity="0.94"/>
  <path d="M92 122c2 4 6 6 10 6s8-2 10-6" fill="none" stroke="#e5e7eb" stroke-width="3" stroke-linecap="round"/>
  <circle cx="100" cy="70" r="8" fill="#c7d2fe"/>
</svg>
